<svg version="1.1" xmlns="http://www.w3.org/2000/svg" xmlns:xlink="http://www.w3.org/1999/xlink" width="48" height="48"><defs><linearGradient x1="18.59013" y1="11.15465" x2="53.34564" y2="58.01118" gradientUnits="userSpaceOnUse" id="color-1"><stop offset="0.31" stop-color="#000000" stop-opacity="0.3"></stop><stop offset="1" stop-color="#000000" stop-opacity="0"></stop></linearGradient><filter id="dropshadow-base"><feColorMatrix type="matrix" values="0 0 0 0 0  0 0 0 0 0  0 0 0 0 0  0 0 0 .8 0"></feColorMatrix> <feOffset dx="0" dy="1"></feOffset> <feGaussianBlur stdDeviation="1"></feGaussianBlur> <feComposite in="SourceGraphic"></feComposite></filter><filter id="dropshadow-banner" x="-10%" y="-10%" width="120%" height="130%"><feColorMatrix type="matrix" values="0 0 0 0 0  0 0 0 0 0  0 0 0 0 0  0 0 0 .4 0"></feColorMatrix> <feOffset dx="0" dy="1"></feOffset> <feGaussianBlur stdDeviation="0.5"></feGaussianBlur> <feComposite in="SourceGraphic"></feComposite></filter></defs><g fill="none" fill-rule="nonzero" stroke="none" stroke-width="none" stroke-linecap="butt" stroke-linejoin="miter" stroke-miterlimit="10" stroke-dasharray="" stroke-dashoffset="0" font-family="none" font-weight="none" font-size="none" text-anchor="none" style="mix-blend-mode: normal"><path d="M2,24c0,-12.15026 9.84974,-22 22,-22c12.15026,0 22,9.84974 22,22c0,12.15026 -9.84974,22 -22,22c-12.15026,0 -22,-9.84974 -22,-22z" id="base 1 5" fill="#d0d2a5" stroke-width="1"></path><path d="M20.49585,32.16968c-0.89679,-0.89679 -1.45146,-2.13569 -1.45146,-3.50415c0,-2.58373 1.97729,-4.70563 4.50123,-4.93506l-4.07795,-4.07795c-0.13421,-0.13421 -0.21681,-0.32005 -0.21681,-0.52654v-0.20649c0,-0.41297 0.33037,-0.74335 0.74335,-0.74335h0.61403c-1.22862,-1.39868 -2.01812,-3.32088 -2.01812,-4.70784c0,-2.43651 2.43651,-2.31261 5.40987,-2.31261l20.59561,20.59561c-2.12124,5.63347 -6.48756,10.1669 -12.0084,12.50972z" fill="url(#color-1)" stroke-width="1"></path><path transform="translate(-6.60173,-5.21675) scale(1.28454,1.28454)" d="M19.78846,15.80118c0,-1.8968 1.8968,-1.80035 4.21154,-1.80035v5.46536h3.15062c0.32149,0 0.57869,0.25719 0.57869,0.57869v0.16075h-0.03215c0,0.32149 -0.25719,0.57869 -0.57869,0.57869h-3.11847v0.09645c-0.23846,0 -0.47248,-0.03378 -0.70046,-0.09645h-2.41801c-0.32149,0 -0.57869,-0.25719 -0.57869,-0.57869v-0.16075c0,-0.32149 0.25719,-0.57869 0.57869,-0.57869h0.47802c-0.95647,-1.08886 -1.57109,-2.58528 -1.57109,-3.66501zM20.1421,27.63208c0,-2.13066 1.72724,-3.8579 3.8579,-3.8579c2.13066,0 3.8579,1.72724 3.8579,3.8579c0,2.13066 -1.72724,3.8579 -3.8579,3.8579c-2.13066,0 -3.8579,-1.72724 -3.8579,-3.8579z" fill="none" stroke-width="0"></path><g id="Layer_1 2" stroke-width="1"><path d="M35.10883,32.05187c0,5.03821 -4.95561,4.74913 -11.10883,4.74913c-6.15322,0 -11.10883,0.24778 -11.10883,-4.74913c0,-5.03821 4.95561,-13.42145 11.10883,-13.42145c6.15322,0.0413 11.10883,8.42454 11.10883,13.42145z" fill="#f2b233"></path><path d="M24,18.67171c6.15322,0 11.10883,8.38325 11.10883,13.42145c0,5.03821 -4.95561,4.74913 -11.10883,4.74913" fill="#dd981d"></path><path d="M18.59012,13.46832c0,-2.43651 2.43651,-2.31262 5.40988,-2.31262c2.97337,0 5.40988,-0.12389 5.40988,2.31262c0,2.43651 -2.43651,6.52489 -5.40988,6.52489c-2.97337,0 -5.40988,-4.08838 -5.40988,-6.52489z" fill="#f2b233"></path><path d="M24,11.1557c2.97337,0 5.40988,-0.12389 5.40988,2.31262c0,2.43651 -2.43651,6.52489 -5.40988,6.52489" fill="#dd981d"></path><path d="M28.74913,19.12598c0,0.41297 -0.33037,0.74334 -0.74334,0.74334h-8.01158c-0.41297,0 -0.74334,-0.33037 -0.74334,-0.74334v-0.20648c0,-0.41297 0.33037,-0.74334 0.74334,-0.74334h8.05287c0.41297,0 0.74334,0.33037 0.74334,0.74334v0.20648z" fill="#04af76"></path><path d="M19.87032,18.21745h8.17676c0.41297,0 0.74334,0.33037 0.74334,0.74334v0.20648c0,0.41297 -0.41297,0.74334 -0.82594,0.74334" fill="#008c61"></path><path d="M19.04439,28.66553c0,-2.73691 2.2187,-4.95561 4.95561,-4.95561c2.73691,0 4.95561,2.2187 4.95561,4.95561c0,2.73691 -2.2187,4.95561 -4.95561,4.95561c-2.73691,0 -4.95561,-2.2187 -4.95561,-4.95561z" fill="#04af76"></path><path d="M20.48977,25.15531c1.94095,-1.94095 5.0795,-1.94095 7.02045,0c1.94095,1.94095 1.94095,5.0795 0,7.02045" fill="#008c61"></path><path d="M23.58703,32.67132v-1.03242c-0.82594,-0.0413 -1.2802,-0.20648 -1.65187,-0.41297l0.24778,-1.11501c0.41297,0.20648 0.94983,0.41297 1.56928,0.41297c0.53686,0 0.90853,-0.20648 0.90853,-0.57815c0,-0.37167 -0.28908,-0.57815 -1.03242,-0.82594c-1.03242,-0.33037 -1.69317,-0.82594 -1.69317,-1.73446c0,-0.82594 0.37167,-1.48668 1.61057,-1.69317v-0.86723h0.82594v0.82594c0.82594,0.0413 1.11501,0.16519 1.40409,0.33037l-0.24778,1.07372c-0.24778,-0.12389 -0.66075,-0.33037 -1.36279,-0.33037c-0.61945,0 -0.82594,0.24778 -0.82594,0.53686c0,0.33037 0.33037,0.49556 1.15631,0.82594c1.11501,0.41297 1.56928,0.90853 1.56928,1.77576c0,0.86723 -0.45426,1.56928 -1.69317,1.77576v1.03242z" fill="#fff6e1"></path><g fill="#ffeebd"><path d="M24,24.82493v1.89965c0,0 0.12389,0 0.20648,0c0.70205,0 1.11501,0.20648 1.36279,0.33037l0.24778,-1.07372c-0.33037,-0.16519 -0.57815,-0.33037 -1.40409,-0.33037v-0.82594z"></path><path d="M24.53686,28.04608c-0.20648,-0.08259 -0.41297,-0.16519 -0.53686,-0.20648v1.40409c0.41297,0.20648 0.66075,0.41297 0.66075,0.70205c0,0.33037 -0.24778,0.49556 -0.66075,0.57815v2.14743h0.41297v-1.07372c1.2389,-0.20648 1.69317,-0.90853 1.69317,-1.77576c0,-0.86723 -0.45426,-1.36279 -1.56928,-1.77576z"></path></g><g fill="#000000" font-family="Roboto, sans-serif" font-weight="400" font-size="14" text-anchor="start"></g><g fill="#000000" font-family="Roboto, sans-serif" font-weight="400" font-size="14" text-anchor="start"></g><g fill="#000000" font-family="Roboto, sans-serif" font-weight="400" font-size="14" text-anchor="start"></g><g fill="#000000" font-family="Roboto, sans-serif" font-weight="400" font-size="14" text-anchor="start"></g><g fill="#000000" font-family="Roboto, sans-serif" font-weight="400" font-size="14" text-anchor="start"></g><g fill="#000000" font-family="Roboto, sans-serif" font-weight="400" font-size="14" text-anchor="start"></g><g fill="#000000" font-family="Roboto, sans-serif" font-weight="400" font-size="14" text-anchor="start"></g><g fill="#000000" font-family="Roboto, sans-serif" font-weight="400" font-size="14" text-anchor="start"></g><g fill="#000000" font-family="Roboto, sans-serif" font-weight="400" font-size="14" text-anchor="start"></g><g fill="#000000" font-family="Roboto, sans-serif" font-weight="400" font-size="14" text-anchor="start"></g><g fill="#000000" font-family="Roboto, sans-serif" font-weight="400" font-size="14" text-anchor="start"></g><g fill="#000000" font-family="Roboto, sans-serif" font-weight="400" font-size="14" text-anchor="start"></g><g fill="#000000" font-family="Roboto, sans-serif" font-weight="400" font-size="14" text-anchor="start"></g><g fill="#000000" font-family="Roboto, sans-serif" font-weight="400" font-size="14" text-anchor="start"></g><g fill="#000000" font-family="Roboto, sans-serif" font-weight="400" font-size="14" text-anchor="start"></g></g><path d="M2,24c0,-12.15026 9.84974,-22 22,-22c12.15026,0 22,9.84974 22,22c0,12.15026 -9.84974,22 -22,22c-12.15026,0 -22,-9.84974 -22,-22z" id="base 1 1 1" fill="none" stroke-width="1"></path><g id="Layer_1 1 1" fill="#000000" stroke-width="1" font-family="Roboto, sans-serif" font-weight="400" font-size="14" text-anchor="start"><g></g><g></g><g></g><g></g><g></g><g></g><g></g><g></g><g></g><g></g><g></g><g></g><g></g><g></g><g></g><g></g></g><rect x="2" y="2" width="44" height="22" fill="none" stroke-width="1"></rect><path d="M2,24v-22h44v22z" fill="none" stroke-width="1"></path><path d="M2,24v-22h44v22z" fill="none" stroke-width="1"></path><path d="M2,24v-22h44v22z" fill="none" stroke-width="1"></path><path d="M2,24v-22h44v22z" fill="none" stroke-width="1"></path></g></svg>